<?xml version="1.0" encoding="UTF-8"?>
<svg version="1.1" xmlns="http://www.w3.org/2000/svg" width="60" height="60">
<path d="M0 0 C1.48310457 0.89779909 2.94525803 1.831949 4.375 2.8125 C5.4475 3.493125 6.52 4.17375 7.625 4.875 C13.54036409 10.35093705 16.60382396 17.92836375 17.03881836 25.86254883 C17.12585921 33.48894282 15.72725946 39.46646804 11.375 45.8125 C10.3540625 47.42125 10.3540625 47.42125 9.3125 49.0625 C3.83656295 54.97786409 -3.74086375 58.04132396 -11.67504883 58.47631836 C-19.30144282 58.56335921 -25.27896804 57.16475946 -31.625 52.8125 C-32.6975 52.131875 -33.77 51.45125 -34.875 50.75 C-40.79016687 45.27424552 -43.85457117 37.69638394 -44.28857422 29.76220703 C-44.37649842 22.13792233 -42.94590702 16.17418526 -38.625 9.8125 C-38.068125 8.905 -37.51125 7.9975 -36.9375 7.0625 C-27.38100844 -2.23570801 -12.3372815 -6.00853862 0 0 Z " fill="#F9F9F9" transform="translate(43.625,2.1875)"/>
<path d="M0 0 C0 0.66 0 1.32 0 2 C-0.66 2 -1.32 2 -2 2 C-2 3.32 -2 4.64 -2 6 C-1.14535156 6.13277344 -0.29070313 6.26554688 0.58984375 6.40234375 C2.24693359 6.66724609 2.24693359 6.66724609 3.9375 6.9375 C5.03964844 7.11152344 6.14179687 7.28554687 7.27734375 7.46484375 C10 8 10 8 11 9 C11.04063832 10.66617115 11.042721 12.33388095 11 14 C8.36 14.99 5.72 15.98 3 17 C6.3 17.33 9.6 17.66 13 18 C13 20.31 13 22.62 13 25 C15.31 25 17.62 25 20 25 C19.34 25.33 18.68 25.66 18 26 C18 26.66 18 27.32 18 28 C18.66 28.33 19.32 28.66 20 29 C17.69 29 15.38 29 13 29 C13.103125 30.051875 13.20625 31.10375 13.3125 32.1875 C13 36 13 36 11.0625 38.9375 C7.45780185 41.36515385 5.34876663 41.6706249 1.08984375 41.4296875 C-1.95949622 40.8027204 -3.26367015 39.5321477 -5 37 C-5.90833969 34.27498092 -6.18359985 32.37766029 -6.31640625 29.55078125 C-6.35830078 28.70322266 -6.40019531 27.85566406 -6.44335938 26.98242188 C-6.48267578 26.10134766 -6.52199219 25.22027344 -6.5625 24.3125 C-6.60568359 23.41982422 -6.64886719 22.52714844 -6.69335938 21.60742188 C-6.7993522 19.40512656 -6.90017221 17.20258338 -7 15 C-0.07 13.515 -0.07 13.515 7 12 C5.618125 11.896875 4.23625 11.79375 2.8125 11.6875 C-1.10395504 11.23037433 -4.02636476 10.7817878 -7 8 C-7.3125 4.8125 -7.3125 4.8125 -7 2 C-4.35261084 0.5393715 -3.10551666 0 0 0 Z " fill="#918D7B" transform="translate(28,8)"/>
<path d="M0 0 C6.96732072 3.76470613 10.43085602 9.22222218 13.45703125 16.375 C14.08210981 19.12534568 14.08286468 20.52283308 13.08203125 23.125 C6.11651401 12.67672414 6.11651401 12.67672414 4.14453125 7.8125 C2.57167745 5.31443807 0.86885991 5.03374848 -1.91796875 4.125 C-2.51996094 3.86589844 -3.12195312 3.60679688 -3.7421875 3.33984375 C-10.63125209 0.42992452 -16.10456561 0.26105974 -23.10546875 2.8125 C-30.1473894 5.89671027 -33.4754337 10.48582526 -36.91796875 17.125 C-38.93375685 23.17236429 -39.03874647 30.54940908 -36.41796875 36.4375 C-33.02600916 42.21952364 -27.43657766 47.29164124 -20.91796875 49.125 C-20.91796875 50.115 -20.91796875 51.105 -20.91796875 52.125 C-26.92507047 51.82464491 -30.70011184 49.17514888 -34.91796875 45.125 C-41.73104303 36.48725788 -42.88728544 28.93996038 -41.91796875 18.125 C-38.95009939 8.55639214 -32.50920597 2.7980579 -23.91796875 -1.875 C-16.02204897 -4.50697326 -7.44714231 -3.46490628 0 0 Z " fill="#BB9989" transform="translate(43.91796875,4.875)"/>
<path d="M0 0 C0.6875 1.5625 0.6875 1.5625 1 4 C0.525625 4.99 0.05125 5.98 -0.4375 7 C-3.0802625 12.68928037 -2.99519173 19.30715019 -1.37890625 25.3046875 C1.42247494 31.7042872 6.76797487 36.45132129 13 39.4375 C13.99 39.7159375 13.99 39.7159375 15 40 C15 40.99 15 41.98 15 43 C8.99289828 42.69964491 5.21785691 40.05014888 1 36 C-4.06993896 29.57223722 -6.14690914 24.88929811 -6.1875 16.625 C-6.20167969 15.31789063 -6.21585937 14.01078125 -6.23046875 12.6640625 C-5.86531092 6.85867192 -4.29236071 3.86312463 0 0 Z " fill="#C29E8E" transform="translate(8,14)"/>
<path d="M0 0 C0.33 0.66 0.66 1.32 1 2 C4.96 2 8.92 2 13 2 C13 4.31 13 6.62 13 9 C15.31 9 17.62 9 20 9 C19.01 9.495 19.01 9.495 18 10 C18 10.66 18 11.32 18 12 C18.66 12.33 19.32 12.66 20 13 C17.69 13 15.38 13 13 13 C13 14.65 13 16.3 13 18 C11.68 18.33 10.36 18.66 9 19 C9 18.01 9 17.02 9 16 C7.68 15.67 6.36 15.34 5 15 C5 13.02 5 11.04 5 9 C5.33 9 5.66 9 6 9 C6.33 10.65 6.66 12.3 7 14 C7.33 14 7.66 14 8 14 C8 11.69 8 9.38 8 7 C4.7 6.67 1.4 6.34 -2 6 C-1.34 4.02 -0.68 2.04 0 0 Z " fill="#969382" transform="translate(28,24)"/>
<path d="M0 0 C0 0.66 0 1.32 0 2 C-0.66 2 -1.32 2 -2 2 C-2 3.32 -2 4.64 -2 6 C-1.14535156 6.13277344 -0.29070313 6.26554688 0.58984375 6.40234375 C2.24693359 6.66724609 2.24693359 6.66724609 3.9375 6.9375 C5.03964844 7.11152344 6.14179687 7.28554687 7.27734375 7.46484375 C10 8 10 8 11 9 C11.04063832 10.66617115 11.042721 12.33388095 11 14 C5.15439723 16.63463787 0.45512034 18.56131481 -6 18 C-5.01 17.67 -4.02 17.34 -3 17 C-3 16.34 -3 15.68 -3 15 C1.95 13.515 1.95 13.515 7 12 C5.618125 11.896875 4.23625 11.79375 2.8125 11.6875 C-1.10395504 11.23037433 -4.02636476 10.7817878 -7 8 C-7.3125 4.8125 -7.3125 4.8125 -7 2 C-4.35261084 0.5393715 -3.10551666 0 0 0 Z " fill="#D9CDB1" transform="translate(28,8)"/>
<path d="M0 0 C1.47906892 -0.02689216 2.95827483 -0.04634621 4.4375 -0.0625 C5.26121094 -0.07410156 6.08492187 -0.08570312 6.93359375 -0.09765625 C9 0 9 0 10 1 C10.04092937 3.33297433 10.04241723 5.66705225 10 8 C9.01 8.33 8.02 8.66 7 9 C7.99 9.33 8.98 9.66 10 10 C9.125 13.875 9.125 13.875 8 15 C4.5625 15.25 4.5625 15.25 1 15 C-1 12 -1 12 -1 9 C-0.01 9 0.98 9 2 9 C1.34 8.67 0.68 8.34 0 8 C0.33 6.68 0.66 5.36 1 4 C0.34 4 -0.32 4 -1 4 C-0.67 2.68 -0.34 1.36 0 0 Z " fill="#D9D2C3" transform="translate(27,30)"/>
<path d="M0 0 C0.99 0.33 1.98 0.66 3 1 C1.68130041 9.47735452 -1.50833565 15.65455728 -8.5 20.875 C-13.77322455 24.57142701 -19.0459917 25.24441525 -25.375 25.125 C-26.62023437 25.10695313 -27.86546875 25.08890625 -29.1484375 25.0703125 C-30.08945312 25.04710938 -31.03046875 25.02390625 -32 25 C-31.505 23.515 -31.505 23.515 -31 22 C-30.23816406 21.97421875 -29.47632813 21.9484375 -28.69140625 21.921875 C-19.57707442 21.42121258 -12.59056592 20.08852107 -6.125 13.3125 C-2.82581017 9.24783689 -1.22721472 5.04911198 0 0 Z " fill="#D3BBB0" transform="translate(55,33)"/>
<path d="M0 0 C1.63001953 0.01353516 1.63001953 0.01353516 3.29296875 0.02734375 C4.12441406 0.03894531 4.95585938 0.05054687 5.8125 0.0625 C5.4825 1.0525 5.1525 2.0425 4.8125 3.0625 C3.68714844 3.17464844 3.68714844 3.17464844 2.5390625 3.2890625 C-6.49402065 4.44948376 -13.87036889 7.30135329 -20.1875 14.0625 C-20.5175 13.7325 -20.8475 13.4025 -21.1875 13.0625 C-22.1775 14.0525 -23.1675 15.0425 -24.1875 16.0625 C-21.82754843 8.55356318 -15.81080655 4.66513536 -9.1875 1.0625 C-5.90230525 -0.03256492 -3.45086585 -0.03710608 0 0 Z " fill="#B18571" transform="translate(29.1875,1.9375)"/>
<path d="M0 0 C0.66 0.66 1.32 1.32 2 2 C6.55244646 2.34358086 9.88581814 1.99475484 14 0 C14 3 14 3 12.5625 5.1875 C9.28582365 7.50514913 7.06865776 7.56719127 3.12890625 7.3984375 C1 7 1 7 -1.5625 5.125 C-3 3 -3 3 -3 1 C-2.01 0.67 -1.02 0.34 0 0 Z " fill="#B5B2A2" transform="translate(26,42)"/>
<path d="M0 0 C0.66 0 1.32 0 2 0 C2.93469245 1.50622413 3.79728934 3.05743623 4.625 4.625 C9.53294598 12.91814022 14.87935216 15.99421518 24 18.375 C26.32821904 18.94724754 28.65885025 19.48177675 31 20 C31 20.33 31 20.66 31 21 C21.7005114 21.89037657 15.14185514 19.22161107 7.6875 13.75 C4.26981002 10.25282886 0 5.13972577 0 0 Z " fill="#FDFDFD" transform="translate(1,39)"/>
<path d="M0 0 C0.7734375 0.3403125 0.7734375 0.3403125 1.5625 0.6875 C-1.50467707 4.22655047 -3.9299607 5.49682924 -8.4375 6.6875 C-12.0859375 6.8828125 -12.0859375 6.8828125 -15.8125 6.8125 C-17.05773437 6.79445313 -18.30296875 6.77640625 -19.5859375 6.7578125 C-20.99746094 6.72300781 -20.99746094 6.72300781 -22.4375 6.6875 C-22.1075 5.6975 -21.7775 4.7075 -21.4375 3.6875 C-20.65246094 3.65011719 -19.86742187 3.61273438 -19.05859375 3.57421875 C-12.042814 3.21876567 -12.042814 3.21876567 -5.4375 1.0625 C-2.4375 -0.3125 -2.4375 -0.3125 0 0 Z " fill="#BEA093" transform="translate(45.4375,51.3125)"/>
<path d="M0 0 C2.31 0.66 4.62 1.32 7 2 C7 3.65 7 5.3 7 7 C1.15439723 9.63463787 -3.54487966 11.56131481 -10 11 C-9.01 10.67 -8.02 10.34 -7 10 C-7 9.34 -7 8.68 -7 8 C-6.30132813 7.80664062 -5.60265625 7.61328125 -4.8828125 7.4140625 C-3.97273438 7.15367188 -3.06265625 6.89328125 -2.125 6.625 C-1.22007813 6.36976562 -0.31515625 6.11453125 0.6171875 5.8515625 C3.14569726 5.1395685 3.14569726 5.1395685 5 3 C2.525 2.01 2.525 2.01 0 1 C0 0.67 0 0.34 0 0 Z " fill="#E3D9BE" transform="translate(32,15)"/>
<path d="M0 0 C0 0.66 0 1.32 0 2 C-1.32 2 -2.64 2 -4 2 C-4 6.95 -4 11.9 -4 17 C-4.66 17 -5.32 17 -6 17 C-6 12.71 -6 8.42 -6 4 C-6.99 3.67 -7.98 3.34 -9 3 C-9 2.01 -9 1.02 -9 0 C-5.93109813 -1.53445094 -3.29905734 -0.54984289 0 0 Z " fill="#AFAFAE" transform="translate(24,19)"/>
<path d="M0 0 C0.6875 1.5625 0.6875 1.5625 1 4 C0.26676253 5.59979084 -0.469956 7.19815018 -1.23046875 8.78515625 C-2.80722016 13.32331894 -2.77303612 18.2337585 -3 23 C-3.66 23 -4.32 23 -5 23 C-5.4581163 14.76663214 -5.34330077 8.18650569 -1 1 C-0.67 0.67 -0.34 0.34 0 0 Z " fill="#CDB2A5" transform="translate(8,14)"/>
<path d="M0 0 C0.33 0.66 0.66 1.32 1 2 C2.66128463 2.35919668 4.32900023 2.68911632 6 3 C8.3125 4.0625 8.3125 4.0625 10 5 C10 5.66 10 6.32 10 7 C1.42857143 7.28571429 1.42857143 7.28571429 -2 5 C-1.34 3.35 -0.68 1.7 0 0 Z " fill="#A79977" transform="translate(28,24)"/>
<path d="M0 0 C0.433125 0.515625 0.86625 1.03125 1.3125 1.5625 C1.9725 2.2225 2.6325 2.8825 3.3125 3.5625 C-0.09681897 4.69893966 -0.69085456 4.42997764 -3.875 3.125 C-4.59042969 2.83753906 -5.30585937 2.55007812 -6.04296875 2.25390625 C-6.58566406 2.02574219 -7.12835938 1.79757813 -7.6875 1.5625 C-7.6875 0.9025 -7.6875 0.2425 -7.6875 -0.4375 C-10.6575 -0.4375 -13.6275 -0.4375 -16.6875 -0.4375 C-16.6875 -0.7675 -16.6875 -1.0975 -16.6875 -1.4375 C-3.62316176 -3.08639706 -3.62316176 -3.08639706 0 0 Z " fill="#BEA499" transform="translate(41.6875,4.4375)"/>
<path d="M0 0 C2.475 0.495 2.475 0.495 5 1 C4.34 1.66 3.68 2.32 3 3 C4.32 3.33 5.64 3.66 7 4 C7 3.01 7 2.02 7 1 C8.32 1 9.64 1 11 1 C10.125 4.875 10.125 4.875 9 6 C5.5625 6.25 5.5625 6.25 2 6 C0 3 0 3 0 0 Z " fill="#ECEBE6" transform="translate(26,39)"/>
<path d="M0 0 C2.97 0 5.94 0 9 0 C8.01 0.495 8.01 0.495 7 1 C7 1.66 7 2.32 7 3 C7.66 3.33 8.32 3.66 9 4 C6.36 4 3.72 4 1 4 C0.67 4.99 0.34 5.98 0 7 C0 4.69 0 2.38 0 0 Z " fill="#6A634A" transform="translate(39,33)"/>
<path d="M0 0 C0.99 0.33 1.98 0.66 3 1 C1.65202703 9.66554054 1.65202703 9.66554054 -2 13 C-1.85769192 11.58297487 -1.71099254 10.1663904 -1.5625 8.75 C-1.48128906 7.96109375 -1.40007813 7.1721875 -1.31640625 6.359375 C-1.02365007 4.17635361 -0.57935581 2.1226818 0 0 Z " fill="#BFA79D" transform="translate(55,33)"/>
<path d="M0 0 C0 0.66 0 1.32 0 2 C-0.66 2 -1.32 2 -2 2 C-2.33 3.32 -2.66 4.64 -3 6 C-3 4.68 -3 3.36 -3 2 C-3.99 2.495 -3.99 2.495 -5 3 C-4.67 4.98 -4.34 6.96 -4 9 C-4.99 8.67 -5.98 8.34 -7 8 C-7 6.02 -7 4.04 -7 2 C-4.35261084 0.5393715 -3.10551666 0 0 0 Z " fill="#EBE2CB" transform="translate(28,8)"/>
<path d="M0 0 C4.35535069 1.16142685 6.64619703 2.07699505 9 6 C7.68 6.33 6.36 6.66 5 7 C4.731875 6.401875 4.46375 5.80375 4.1875 5.1875 C3.01506533 3.02775192 1.80630718 1.64209744 0 0 Z " fill="#AC7C66" transform="translate(40,4)"/>
<path d="M0 0 C1.32 0 2.64 0 4 0 C4 1.32 4 2.64 4 4 C3.01 4.33 2.02 4.66 1 5 C0.34 4.67 -0.32 4.34 -1 4 C-0.67 2.68 -0.34 1.36 0 0 Z " fill="#EBEAE7" transform="translate(28,34)"/>
<path d="M0 0 C1.98 0 3.96 0 6 0 C6 0.99 6 1.98 6 3 C3.69 3.33 1.38 3.66 -1 4 C-0.67 2.68 -0.34 1.36 0 0 Z " fill="#EEEDEB" transform="translate(27,30)"/>
<path d="M0 0 C3 3.75 3 3.75 3 6 C1.35 6 -0.3 6 -2 6 C-1.34 4.02 -0.68 2.04 0 0 Z " fill="#5D553F" transform="translate(28,24)"/>
</svg>
